Coordinates
version=1
nRows=12
nColumns=34
inDegrees=yes

Units are S.I. units (second, meters, Newtons, ...)
If the header above contains a line with 'inDegrees', this indicates whether rotational values are in degrees (yes) or radians (no).

endheader
time	pelvis_tilt	pelvis_list	pelvis_rotation	pelvis_tx	pelvis_ty	pelvis_tz	hip_flexion_r	hip_adduction_r	hip_rotation_r	knee_angle_r	ankle_angle_r	subtalar_angle_r	mtp_angle_r	hip_flexion_l	hip_adduction_l	hip_rotation_l	knee_angle_l	ankle_angle_l	subtalar_angle_l	mtp_angle_l	lumbar_extension	lumbar_bending	lumbar_rotation	arm_flex_r	arm_add_r	arm_rot_r	elbow_flex_r	pro_sup_r	arm_flex_l	arm_add_l	arm_rot_l	elbow_flex_l	pro_sup_l
      2.38000000	      1.50986399	      2.60593021	      6.43318360	      0.08345624	      0.90209881	      0.18367475	     23.79578676	     -1.41963320	     -9.08579180	     -4.79674767	      1.34292109	      2.70411797	     11.28757763	    -20.44407666	      4.14543841	      0.60506779	     -7.47226502	     10.93893039	      8.70439289	      7.62727132	     -7.64345798	     -1.95921387	     -9.63652062	     -9.15246301	    -13.02696931	      4.48866332	      8.99604529	     90.00000000	      5.49904885	    -23.20079526	     14.28707254	     46.01837677	     90.00000000
      2.39000000	      1.56187605	      2.61747823	      6.46111083	      0.09844159	      0.90050789	      0.18379966	     24.05167960	     -1.34528766	     -9.18050184	     -6.47452417	      1.41896599	      2.37250998	     11.27751546	    -20.93693323	      3.96631031	      0.61651989	     -8.44868018	     10.44588026	      8.79977425	      7.69169382	     -7.55614524	     -1.88779489	     -9.63450507	     -9.34337337	    -13.09839190	      4.44639502	      9.47419818	     90.00000000	      5.21892561	    -23.16413231	     14.16685089	     46.23561319	     90.00000000
      2.40000000	      1.60688079	      2.56011334	      6.61148193	      0.11376620	      0.89894428	      0.18380753	     24.24148629	     -1.23991425	     -9.23198233	     -8.43296330	      1.68608295	      1.85049583	     11.25032415	    -21.32639753	      3.64678028	      0.56033772	     -9.53759678	      9.77157716	      9.14143964	      7.83109549	     -7.39256533	     -1.77081771	     -9.74088147	     -9.49783636	    -13.16758548	      4.41896864	      9.75091938	     90.00000000	      4.82783630	    -23.11090321	     14.02057225	     46.43982832	     90.00000000
      2.41000000	      1.50509209	      2.47275949	      6.71670198	      0.12940578	      0.89723363	      0.18397118	     24.44197281	     -1.05047682	     -8.91547233	    -10.37867793	      1.79473596	      1.17317218	     11.11019248	    -21.38749342	      3.27404232	      0.16252105	    -10.93489292	      8.87013333	     10.28040851	      8.46056574	     -7.00059624	     -1.62012455	     -9.85457632	     -9.40589122	    -13.17286940	      4.52421953	      9.35942499	     90.00000000	      4.23783049	    -23.03292220	     13.62504866	     46.59375682	     90.00000000
      2.42000000	      1.50520578	      1.98859262	      6.72635436	      0.14514339	      0.89585683	      0.18437926	     24.31485743	     -0.29768917	     -8.74334238	    -11.31360590	     -2.07523241	     -2.36589095	     11.61661182	    -21.38403012	      2.50509923	     -0.59833791	    -12.44615985	      6.92932914	     10.99656378	     17.78757676	     -6.67707569	     -1.03957809	     -9.84702064	     -9.19728373	    -13.32307115	      7.02041079	      8.74232877	     90.00000000	      3.55542273	    -22.82439774	     13.00431424	     46.74882727	     90.00000000
      2.43000000	      1.51039799	      1.35881710	      6.73252356	      0.16052983	      0.89497804	      0.18490442	     24.15320501	      0.53324560	     -8.37565913	    -11.94084459	     -4.87856062	     -4.51638294	     10.09302913	    -21.19847883	      1.57300954	     -1.09219571	    -14.26430199	      5.80555230	     11.88638165	     18.34781722	     -6.43045577	     -0.28785661	     -9.60203805	     -9.31608184	    -13.38738584	      6.56656856	      9.10385003	     90.00000000	      3.24067920	    -22.55411351	     12.93250080	     46.32585515	     90.00000000
      2.44000000	      1.38162734	      0.59878943	      6.64803481	      0.17567746	      0.89442881	      0.18523697	     24.52101089	      1.39976656	     -7.75837826	    -13.55076170	     -6.49374446	     -6.05799432	     11.90969155	    -20.67765750	      0.63023043	     -1.57568054	    -16.19241615	      3.41759317	     12.01408863	     24.77954331	     -6.02247178	      0.70395340	     -9.27002372	     -9.24864415	    -13.64175401	      6.34501375	      9.24868069	     90.00000000	      2.94880062	    -22.09946878	     12.83230357	     45.76048477	     90.00000000
      2.45000000	      1.29736306	     -0.34996197	      6.51687445	      0.19084025	      0.89428038	      0.18559627	     25.17183283	      2.42786381	     -7.21150063	    -16.14461575	     -7.12364843	     -6.73349258	     11.60875445	    -20.01131693	     -0.48117219	     -1.93565689	    -18.44456466	      1.35249841	     11.90561165	     24.85921588	     -5.67007941	      1.86846271	     -8.87097953	     -9.22022619	    -13.93063981	      6.22441333	      9.61128023	     90.00000000	      2.60601197	    -21.57993293	     12.61085078	     45.05363376	     90.00000000
      2.46000000	      1.21910728	     -1.15434984	      6.15978660	      0.20595638	      0.89432317	      0.18635965	     25.71831969	      3.46307301	     -6.36200727	    -18.45906102	     -7.47237947	     -7.31221877	     11.42457005	    -19.15844940	     -1.37572950	     -2.50292042	    -20.99333169	     -1.10850711	     11.57525252	     25.07208233	     -5.39475316	      2.83834773	     -8.28623755	     -9.11129556	    -14.12608703	      6.17378440	      9.94933344	     90.00000000	      2.20557334	    -21.05252305	     12.40796747	     44.30264832	     90.00000000
      2.47000000	      0.81099080	     -2.02203940	      5.76737834	      0.22065233	      0.89396154	      0.18728442	     26.12560418	      4.75267007	     -4.62869894	    -19.69001837	     -8.73251809	     -9.49504875	     10.90217423	    -17.65849379	     -2.30621067	     -2.94127526	    -23.89245812	     -4.00208929	     11.14874815	     28.50480057	     -4.77415127	      3.83048647	     -7.67815641	     -8.87326606	    -14.38811062	      6.80091508	      9.93406440	     90.00000000	      1.91190961	    -20.62185326	     12.82037528	     43.15150480	     90.00000000
      2.48000000	      0.90149219	     -2.83526728	      5.59902453	      0.23580911	      0.89448684	      0.18789886	     25.87140970	      5.76825216	     -4.42259572	    -20.92081447	     -8.44302248	     -9.37111212	     10.85161359	    -16.61079997	     -3.32628287	     -3.21030817	    -26.73963299	     -7.61497223	     10.54615857	     28.86153979	     -4.72784856	      4.78748324	     -7.37423848	     -8.68627040	    -14.65480460	      6.72000443	     10.48319249	     90.00000000	      1.29745866	    -20.22608778	     12.46132583	     42.59387880	     90.00000000
      2.49000000	      0.86861184	     -3.62668206	      5.31408648	      0.25061546	      0.89500825	      0.18894158	     25.53579014	      6.90676369	     -3.97150901	    -21.88352806	     -7.15334354	     -9.55774395	      8.19004870	    -15.37699300	     -4.28028180	     -3.48877099	    -29.28934134	    -13.49744205	      8.47650238	     49.11215185	     -4.59159266	      5.65618730	     -6.91563176	     -8.32580339	    -14.87579261	      7.94302470	     10.59040632	     90.00000000	      0.82820099	    -19.82304664	     12.24635197	     41.69554798	     90.00000000
